# xmcd CD database file
#
# Track frame offsets:
#	150
#	11133
#	27996
#	38023
#	51561
#	64095
#	74942
#	91486
#	102807
#	118876
#	131210
#	149776
#
# Disc length: 2176 seconds
#
# Revision: 1
# Processed by: cddbd v1.4PL0 Copyright (c) Steve Scherf et al.
# Submitted via: jetAudio 5
#
DISCID=c2087e0c
DTITLE=Roger Wallace - That Kind of Lonely
DYEAR=1900
DGENRE=
TTITLE0=I Ain't Gonna Waste My Time
TTITLE1=That Kind Of Lonely
TTITLE2=You're Gonna Break My Heart
TTITLE3=Good Thing You Love Me
TTITLE4=I Never Picked Cotton
TTITLE5=Drinking or Crying
TTITLE6=From The Time I Get Up
TTITLE7=Almost Good Tonight
TTITLE8=Square One
TTITLE9=Don't Tell Me You're Not Crying
TTITLE10=The Last Word In Lonesome Is Me
TTITLE11=First Train Heading South
EXTD=Jim Stringer, Brad Fordham, Lisa Pankratz, Marty Muse, Eamon McLou
EXTD=ghlin
EXTT0=That Kind of Lonely
EXTT1=That Kind of Lonely
EXTT2=That Kind of Lonely
EXTT3=That Kind of Lonely
EXTT4=That Kind of Lonely
EXTT5=That Kind of Lonely
EXTT6=That Kind of Lonely
EXTT7=That Kind of Lonely
EXTT8=That Kind of Lonely
EXTT9=That Kind of Lonely
EXTT10=That Kind of Lonely
EXTT11=That Kind of Lonely
PLAYORDER=
